ffmpeg started on 2026-01-20 at 13:52:56
Report written to "D:\Convert\FFMetrics\reports\psnr_report-6.txt"
Log level: 32
Command line:
ffmpeg -hide_banner -nostdin -r 24000/1001 -i "F:\\Convert\\files\\[DC] Make Heroine ga Oosugiru - 07_Telegram_HEVC(201).mkv" -r 24000/1001 -i "F:\\Convert\\files\\[DC] Make Heroine ga Oosugiru - 07_Telegram.mp4" -lavfi "[0:v]settb=AVTB,setpts=PTS-STARTPTS,format=pix_fmts=yuv420p10le,fps=24000/1001,scale=1920:1080:flags=lanczos:param0=3:out_range=limited:out_color_matrix=bt709:out_chroma_loc=left,setsar=1/1,setdar=(1920/1080)*(1/1),colorspace=format=yuv420p10:range=tv:primaries=bt709:trc=bt709:space=bt709:fast=0[main];[1:v]settb=AVTB,setpts=PTS-STARTPTS,format=pix_fmts=yuv420p,fps=24000/1001,scale=1920:1080:flags=lanczos:param0=3:out_range=limited:out_color_matrix=bt709:out_chroma_loc=left,setsar=1.000,setdar=1.778,colorspace=format=yuv420p:range=tv:primaries=bt709:trc=bt709:space=bt709:fast=0[ref];[main][ref]psnr=eof_action=endall:stats_file='D\\:/Convert/FFMetrics/logs/psnr_logfile-6.txt'" -f null -
Input #0, matroska,webm, from 'F:\Convert\files\[DC] Make Heroine ga Oosugiru - 07_Telegram_HEVC(201).mkv':
  Metadata:
    COMPATIBLE_BRANDS: isomiso2avc1mp41
    MAJOR_BRAND     : isom
    MINOR_VERSION   : 512
    ENCODER         : Lavf61.7.100
  Duration: 00:24:06.79, start: -0.021000, bitrate: 969 kb/s
  Stream #0:0: Video: hevc (Main 10), yuv420p10le(tv, bt709, progressive), 1920x1080 [SAR 1:1 DAR 16:9], 23.98 fps, 23.98 tbr, 1k tbn (default)
      Metadata:
        HANDLER_NAME    : VideoHandler
        VENDOR_ID       : [0][0][0][0]
        ENCODER         : Lavc61.19.100 libx265
        BPS             : 772424
        DURATION        : 00:24:06.569708333
        NUMBER_OF_FRAMES: 34683
        NUMBER_OF_BYTES : 139670621
        _STATISTICS_WRITING_APP: mkvpropedit v94.0 ('Initiate') 64-bit
        _STATISTICS_WRITING_DATE_UTC: 2026-01-20 06:46:36
        _STATISTICS_TAGS: BPS DURATION NUMBER_OF_FRAMES NUMBER_OF_BYTES
  Stream #0:1: Audio: aac (LC), 48000 Hz, stereo, fltp (default)
      Metadata:
        HANDLER_NAME    : SoundHandler
        VENDOR_ID       : [0][0][0][0]
        ENCODER         : Lavc61.19.100 aac
        BPS             : 193194
        DURATION        : 00:24:06.784000000
        NUMBER_OF_FRAMES: 67819
        NUMBER_OF_BYTES : 34938755
        _STATISTICS_WRITING_APP: mkvpropedit v94.0 ('Initiate') 64-bit
        _STATISTICS_WRITING_DATE_UTC: 2026-01-20 06:46:36
        _STATISTICS_TAGS: BPS DURATION NUMBER_OF_FRAMES NUMBER_OF_BYTES
Input #1, mov,mp4,m4a,3gp,3g2,mj2, from 'F:\Convert\files\[DC] Make Heroine ga Oosugiru - 07_Telegram.mp4':
  Metadata:
    major_brand     : isom
    minor_version   : 512
    compatible_brands: isomiso2avc1mp41
    encoder         : Lavf60.16.100
  Duration: 00:24:06.74, start: 0.000000, bitrate: 3764 kb/s
  Stream #1:0[0x1](und): Video: h264 (High) (avc1 / 0x31637661), yuv420p(tv, bt709, progressive), 1920x1080 [SAR 1:1 DAR 16:9], 3616 kb/s, 23.98 fps, 23.98 tbr, 24k tbn (default)
      Metadata:
        handler_name    : VideoHandler
        vendor_id       : [0][0][0][0]
        encoder         : Lavc60.31.102 h264_qsv
  Stream #1:1[0x2](und): Audio: aac (HE-AACv2) (mp4a / 0x6134706D), 48000 Hz, stereo, fltp, 144 kb/s (default)
      Metadata:
        handler_name    : SoundHandler
        vendor_id       : [0][0][0][0]
Stream mapping:
  Stream #0:0 (hevc) -> settb:default
  Stream #1:0 (h264) -> settb:default
  psnr:default -> Stream #0:0 (wrapped_avframe)
  Stream #0:1 -> #0:1 (aac (native) -> pcm_s16le (native))
Output #0, null, to 'pipe:':
  Metadata:
    COMPATIBLE_BRANDS: isomiso2avc1mp41
    MAJOR_BRAND     : isom
    MINOR_VERSION   : 512
    encoder         : Lavf61.7.100
  Stream #0:0: Video: wrapped_avframe, yuv420p10le(tv, bt709, progressive), 1920x1080 [SAR 1:1 DAR 16:9], q=2-31, 200 kb/s, 23.98 fps, 23.98 tbn
      Metadata:
        encoder         : Lavc61.19.100 wrapped_avframe
  Stream #0:1: Audio: pcm_s16le, 48000 Hz, stereo, s16, 1536 kb/s (default)
      Metadata:
        HANDLER_NAME    : SoundHandler
        VENDOR_ID       : [0][0][0][0]
        _STATISTICS_TAGS: BPS DURATION NUMBER_OF_FRAMES NUMBER_OF_BYTES
        BPS             : 193194
        DURATION        : 00:24:06.784000000
        NUMBER_OF_FRAMES: 67819
        NUMBER_OF_BYTES : 34938755
        _STATISTICS_WRITING_APP: mkvpropedit v94.0 ('Initiate') 64-bit
        _STATISTICS_WRITING_DATE_UTC: 2026-01-20 06:46:36
        encoder         : Lavc61.19.100 pcm_s16le
frame=  131 fps=0.0 q=-0.0 size=N/A time=00:00:05.46 bitrate=N/A speed=10.6x    frame=  315 fps=307 q=-0.0 size=N/A time=00:00:13.13 bitrate=N/A speed=12.8x    frame=  506 fps=329 q=-0.0 size=N/A time=00:00:21.10 bitrate=N/A speed=13.7x    frame=  699 fps=339 q=-0.0 size=N/A time=00:00:29.15 bitrate=N/A speed=14.1x    frame=  881 fps=342 q=-0.0 size=N/A time=00:00:36.74 bitrate=N/A speed=14.3x    frame= 1015 fps=329 q=-0.0 size=N/A time=00:00:42.33 bitrate=N/A speed=13.7x    frame= 1182 fps=327 q=-0.0 size=N/A time=00:00:49.29 bitrate=N/A speed=13.7x    frame= 1338 fps=325 q=-0.0 size=N/A time=00:00:55.80 bitrate=N/A speed=13.6x    frame= 1505 fps=324 q=-0.0 size=N/A time=00:01:02.77 bitrate=N/A speed=13.5x    frame= 1646 fps=318 q=-0.0 size=N/A time=00:01:08.65 bitrate=N/A speed=13.3x    frame= 1810 fps=318 q=-0.0 size=N/A time=00:01:15.49 bitrate=N/A speed=13.3x    frame= 1969 fps=318 q=-0.0 size=N/A time=00:01:22.12 bitrate=N/A speed=13.3x    frame= 2090 fps=311 q=-0.0 size=N/A time=00:01:27.17 bitrate=N/A speed=  13x    frame= 2245 fps=310 q=-0.0 size=N/A time=00:01:33.63 bitrate=N/A speed=12.9x    frame= 2386 fps=307 q=-0.0 size=N/A time=00:01:39.51 bitrate=N/A speed=12.8x    frame= 2521 fps=305 q=-0.0 size=N/A time=00:01:45.14 bitrate=N/A speed=12.7x    frame= 2680 fps=305 q=-0.0 size=N/A time=00:01:51.77 bitrate=N/A speed=12.7x    frame= 2859 fps=307 q=-0.0 size=N/A time=00:01:59.24 bitrate=N/A speed=12.8x    frame= 3030 fps=308 q=-0.0 size=N/A time=00:02:06.37 bitrate=N/A speed=12.9x    frame= 3222 fps=312 q=-0.0 size=N/A time=00:02:14.38 bitrate=N/A speed=  13x    frame= 3427 fps=315 q=-0.0 size=N/A time=00:02:22.93 bitrate=N/A speed=13.2x    frame= 3633 fps=319 q=-0.0 size=N/A time=00:02:31.52 bitrate=N/A speed=13.3x    frame= 3822 fps=321 q=-0.0 size=N/A time=00:02:39.40 bitrate=N/A speed=13.4x    frame= 4012 fps=323 q=-0.0 size=N/A time=00:02:47.33 bitrate=N/A speed=13.5x    frame= 4209 fps=325 q=-0.0 size=N/A time=00:02:55.55 bitrate=N/A speed=13.6x    frame= 4405 fps=328 q=-0.0 size=N/A time=00:03:03.72 bitrate=N/A speed=13.7x    frame= 4599 fps=329 q=-0.0 size=N/A time=00:03:11.81 bitrate=N/A speed=13.7x    frame= 4797 fps=331 q=-0.0 size=N/A time=00:03:20.07 bitrate=N/A speed=13.8x    frame= 4981 fps=332 q=-0.0 size=N/A time=00:03:27.74 bitrate=N/A speed=13.9x    frame= 5169 fps=333 q=-0.0 size=N/A time=00:03:35.59 bitrate=N/A speed=13.9x    frame= 5363 fps=335 q=-0.0 size=N/A time=00:03:43.68 bitrate=N/A speed=  14x    frame= 5560 fps=336 q=-0.0 size=N/A time=00:03:51.89 bitrate=N/A speed=  14x    frame= 5754 fps=337 q=-0.0 size=N/A time=00:03:59.98 bitrate=N/A speed=14.1x    frame= 5945 fps=338 q=-0.0 size=N/A time=00:04:07.95 bitrate=N/A speed=14.1x    frame= 6143 fps=339 q=-0.0 size=N/A time=00:04:16.21 bitrate=N/A speed=14.2x    frame= 6340 fps=341 q=-0.0 size=N/A time=00:04:24.43 bitrate=N/A speed=14.2x    frame= 6533 fps=342 q=-0.0 size=N/A time=00:04:32.48 bitrate=N/A speed=14.3x    frame= 6729 fps=343 q=-0.0 size=N/A time=00:04:40.65 bitrate=N/A speed=14.3x    frame= 6932 fps=344 q=-0.0 size=N/A time=00:04:49.12 bitrate=N/A speed=14.3x    frame= 7122 fps=345 q=-0.0 size=N/A time=00:04:57.04 bitrate=N/A speed=14.4x    frame= 7310 fps=345 q=-0.0 size=N/A time=00:05:04.88 bitrate=N/A speed=14.4x    frame= 7506 fps=346 q=-0.0 size=N/A time=00:05:13.06 bitrate=N/A speed=14.4x    frame= 7691 fps=346 q=-0.0 size=N/A time=00:05:20.77 bitrate=N/A speed=14.4x    frame= 7882 fps=347 q=-0.0 size=N/A time=00:05:28.74 bitrate=N/A speed=14.5x    frame= 8075 fps=347 q=-0.0 size=N/A time=00:05:36.79 bitrate=N/A speed=14.5x    frame= 8272 fps=348 q=-0.0 size=N/A time=00:05:45.01 bitrate=N/A speed=14.5x    frame= 8465 fps=349 q=-0.0 size=N/A time=00:05:53.06 bitrate=N/A speed=14.5x    frame= 8652 fps=349 q=-0.0 size=N/A time=00:06:00.86 bitrate=N/A speed=14.6x    frame= 8844 fps=349 q=-0.0 size=N/A time=00:06:08.86 bitrate=N/A speed=14.6x    frame= 9044 fps=350 q=-0.0 size=N/A time=00:06:17.21 bitrate=N/A speed=14.6x    frame= 9228 fps=350 q=-0.0 size=N/A time=00:06:24.88 bitrate=N/A speed=14.6x    frame= 9408 fps=350 q=-0.0 size=N/A time=00:06:32.39 bitrate=N/A speed=14.6x    frame= 9585 fps=350 q=-0.0 size=N/A time=00:06:39.77 bitrate=N/A speed=14.6x    frame= 9772 fps=350 q=-0.0 size=N/A time=00:06:47.57 bitrate=N/A speed=14.6x    frame= 9964 fps=351 q=-0.0 size=N/A time=00:06:55.58 bitrate=N/A speed=14.6x    frame=10162 fps=351 q=-0.0 size=N/A time=00:07:03.84 bitrate=N/A speed=14.6x    frame=10348 fps=351 q=-0.0 size=N/A time=00:07:11.59 bitrate=N/A speed=14.7x    frame=10524 fps=351 q=-0.0 size=N/A time=00:07:18.93 bitrate=N/A speed=14.6x    frame=10713 fps=352 q=-0.0 size=N/A time=00:07:26.82 bitrate=N/A speed=14.7x    frame=10894 fps=351 q=-0.0 size=N/A time=00:07:34.37 bitrate=N/A speed=14.7x    frame=11083 fps=352 q=-0.0 size=N/A time=00:07:42.25 bitrate=N/A speed=14.7x    frame=11263 fps=352 q=-0.0 size=N/A time=00:07:49.76 bitrate=N/A speed=14.7x    frame=11462 fps=352 q=-0.0 size=N/A time=00:07:58.06 bitrate=N/A speed=14.7x    frame=11642 fps=352 q=-0.0 size=N/A time=00:08:05.56 bitrate=N/A speed=14.7x    frame=11823 fps=352 q=-0.0 size=N/A time=00:08:13.11 bitrate=N/A speed=14.7x    frame=12016 fps=352 q=-0.0 size=N/A time=00:08:21.16 bitrate=N/A speed=14.7x    frame=12202 fps=353 q=-0.0 size=N/A time=00:08:28.92 bitrate=N/A speed=14.7x    frame=12386 fps=353 q=-0.0 size=N/A time=00:08:36.59 bitrate=N/A speed=14.7x    frame=12574 fps=353 q=-0.0 size=N/A time=00:08:44.44 bitrate=N/A speed=14.7x    frame=12752 fps=353 q=-0.0 size=N/A time=00:08:51.86 bitrate=N/A speed=14.7x    frame=12950 fps=353 q=-0.0 size=N/A time=00:09:00.12 bitrate=N/A speed=14.7x    frame=13134 fps=353 q=-0.0 size=N/A time=00:09:07.79 bitrate=N/A speed=14.7x    frame=13317 fps=353 q=-0.0 size=N/A time=00:09:15.42 bitrate=N/A speed=14.7x    frame=13498 fps=353 q=-0.0 size=N/A time=00:09:22.97 bitrate=N/A speed=14.7x    frame=13696 fps=353 q=-0.0 size=N/A time=00:09:31.23 bitrate=N/A speed=14.7x    frame=13880 fps=354 q=-0.0 size=N/A time=00:09:38.91 bitrate=N/A speed=14.7x    frame=14065 fps=354 q=-0.0 size=N/A time=00:09:46.62 bitrate=N/A speed=14.7x    frame=14241 fps=353 q=-0.0 size=N/A time=00:09:53.96 bitrate=N/A speed=14.7x    frame=14421 fps=353 q=-0.0 size=N/A time=00:10:01.47 bitrate=N/A speed=14.7x    frame=14612 fps=354 q=-0.0 size=N/A time=00:10:09.44 bitrate=N/A speed=14.7x    frame=14793 fps=354 q=-0.0 size=N/A time=00:10:16.99 bitrate=N/A speed=14.7x    frame=14984 fps=354 q=-0.0 size=N/A time=00:10:24.95 bitrate=N/A speed=14.8x    frame=15148 fps=353 q=-0.0 size=N/A time=00:10:31.79 bitrate=N/A speed=14.7x    frame=15329 fps=353 q=-0.0 size=N/A time=00:10:39.34 bitrate=N/A speed=14.7x    frame=15516 fps=353 q=-0.0 size=N/A time=00:10:47.14 bitrate=N/A speed=14.7x    frame=15705 fps=354 q=-0.0 size=N/A time=00:10:55.02 bitrate=N/A speed=14.7x    frame=15891 fps=354 q=-0.0 size=N/A time=00:11:02.78 bitrate=N/A speed=14.8x    frame=16085 fps=354 q=-0.0 size=N/A time=00:11:10.87 bitrate=N/A speed=14.8x    frame=16270 fps=354 q=-0.0 size=N/A time=00:11:18.59 bitrate=N/A speed=14.8x    frame=16461 fps=354 q=-0.0 size=N/A time=00:11:26.56 bitrate=N/A speed=14.8x    frame=16640 fps=354 q=-0.0 size=N/A time=00:11:34.02 bitrate=N/A speed=14.8x    frame=16836 fps=354 q=-0.0 size=N/A time=00:11:42.20 bitrate=N/A speed=14.8x    frame=17023 fps=354 q=-0.0 size=N/A time=00:11:50.00 bitrate=N/A speed=14.8x    frame=17218 fps=355 q=-0.0 size=N/A time=00:11:58.13 bitrate=N/A speed=14.8x    frame=17403 fps=355 q=-0.0 size=N/A time=00:12:05.85 bitrate=N/A speed=14.8x    frame=17589 fps=355 q=-0.0 size=N/A time=00:12:13.60 bitrate=N/A speed=14.8x    frame=17764 fps=355 q=-0.0 size=N/A time=00:12:20.90 bitrate=N/A speed=14.8x    frame=17960 fps=355 q=-0.0 size=N/A time=00:12:29.08 bitrate=N/A speed=14.8x    frame=18149 fps=355 q=-0.0 size=N/A time=00:12:36.96 bitrate=N/A speed=14.8x    frame=18323 fps=355 q=-0.0 size=N/A time=00:12:44.22 bitrate=N/A speed=14.8x    frame=18504 fps=355 q=-0.0 size=N/A time=00:12:51.77 bitrate=N/A speed=14.8x    frame=18698 fps=355 q=-0.0 size=N/A time=00:12:59.86 bitrate=N/A speed=14.8x    frame=18890 fps=355 q=-0.0 size=N/A time=00:13:07.87 bitrate=N/A speed=14.8x    frame=19084 fps=355 q=-0.0 size=N/A time=00:13:15.96 bitrate=N/A speed=14.8x    frame=19275 fps=355 q=-0.0 size=N/A time=00:13:23.92 bitrate=N/A speed=14.8x    frame=19469 fps=356 q=-0.0 size=N/A time=00:13:32.01 bitrate=N/A speed=14.8x    frame=19659 fps=356 q=-0.0 size=N/A time=00:13:39.94 bitrate=N/A speed=14.8x    frame=19855 fps=356 q=-0.0 size=N/A time=00:13:48.11 bitrate=N/A speed=14.9x    frame=20046 fps=356 q=-0.0 size=N/A time=00:13:56.08 bitrate=N/A speed=14.9x    frame=20243 fps=356 q=-0.0 size=N/A time=00:14:04.30 bitrate=N/A speed=14.9x    frame=20421 fps=356 q=-0.0 size=N/A time=00:14:11.72 bitrate=N/A speed=14.9x    frame=20604 fps=356 q=-0.0 size=N/A time=00:14:19.35 bitrate=N/A speed=14.9x    frame=20783 fps=356 q=-0.0 size=N/A time=00:14:26.82 bitrate=N/A speed=14.9x    frame=20981 fps=357 q=-0.0 size=N/A time=00:14:35.08 bitrate=N/A speed=14.9x    frame=21177 fps=357 q=-0.0 size=N/A time=00:14:43.25 bitrate=N/A speed=14.9x    frame=21362 fps=357 q=-0.0 size=N/A time=00:14:50.97 bitrate=N/A speed=14.9x    frame=21553 fps=357 q=-0.0 size=N/A time=00:14:58.93 bitrate=N/A speed=14.9x    frame=21752 fps=357 q=-0.0 size=N/A time=00:15:07.23 bitrate=N/A speed=14.9x    frame=21942 fps=357 q=-0.0 size=N/A time=00:15:15.16 bitrate=N/A speed=14.9x    frame=22132 fps=357 q=-0.0 size=N/A time=00:15:23.08 bitrate=N/A speed=14.9x    frame=22317 fps=357 q=-0.0 size=N/A time=00:15:30.80 bitrate=N/A speed=14.9x    frame=22514 fps=357 q=-0.0 size=N/A time=00:15:39.02 bitrate=N/A speed=14.9x    frame=22704 fps=358 q=-0.0 size=N/A time=00:15:46.94 bitrate=N/A speed=14.9x    frame=22881 fps=357 q=-0.0 size=N/A time=00:15:54.32 bitrate=N/A speed=14.9x    frame=23073 fps=358 q=-0.0 size=N/A time=00:16:02.33 bitrate=N/A speed=14.9x    frame=23262 fps=358 q=-0.0 size=N/A time=00:16:10.21 bitrate=N/A speed=14.9x    frame=23453 fps=358 q=-0.0 size=N/A time=00:16:18.18 bitrate=N/A speed=14.9x    frame=23648 fps=358 q=-0.0 size=N/A time=00:16:26.31 bitrate=N/A speed=14.9x    frame=23839 fps=358 q=-0.0 size=N/A time=00:16:34.28 bitrate=N/A speed=14.9x    frame=24029 fps=358 q=-0.0 size=N/A time=00:16:42.20 bitrate=N/A speed=14.9x    frame=24215 fps=358 q=-0.0 size=N/A time=00:16:49.96 bitrate=N/A speed=14.9x    frame=24405 fps=358 q=-0.0 size=N/A time=00:16:57.89 bitrate=N/A speed=14.9x    frame=24596 fps=358 q=-0.0 size=N/A time=00:17:05.85 bitrate=N/A speed=14.9x    frame=24784 fps=358 q=-0.0 size=N/A time=00:17:13.69 bitrate=N/A speed=14.9x    frame=24973 fps=358 q=-0.0 size=N/A time=00:17:21.58 bitrate=N/A speed=14.9x    frame=25165 fps=358 q=-0.0 size=N/A time=00:17:29.59 bitrate=N/A speed=  15x    frame=25352 fps=359 q=-0.0 size=N/A time=00:17:37.38 bitrate=N/A speed=  15x    frame=25549 fps=359 q=-0.0 size=N/A time=00:17:45.60 bitrate=N/A speed=  15x    frame=25738 fps=359 q=-0.0 size=N/A time=00:17:53.48 bitrate=N/A speed=  15x    frame=25929 fps=359 q=-0.0 size=N/A time=00:18:01.45 bitrate=N/A speed=  15x    frame=26119 fps=359 q=-0.0 size=N/A time=00:18:09.37 bitrate=N/A speed=  15x    frame=26308 fps=359 q=-0.0 size=N/A time=00:18:17.26 bitrate=N/A speed=  15x    frame=26506 fps=359 q=-0.0 size=N/A time=00:18:25.52 bitrate=N/A speed=  15x    frame=26693 fps=359 q=-0.0 size=N/A time=00:18:33.32 bitrate=N/A speed=  15x    frame=26887 fps=359 q=-0.0 size=N/A time=00:18:41.41 bitrate=N/A speed=  15x    frame=27059 fps=359 q=-0.0 size=N/A time=00:18:48.58 bitrate=N/A speed=  15x    frame=27239 fps=359 q=-0.0 size=N/A time=00:18:56.09 bitrate=N/A speed=  15x    frame=27425 fps=359 q=-0.0 size=N/A time=00:19:03.85 bitrate=N/A speed=  15x    frame=27606 fps=359 q=-0.0 size=N/A time=00:19:11.40 bitrate=N/A speed=  15x    frame=27801 fps=359 q=-0.0 size=N/A time=00:19:19.53 bitrate=N/A speed=  15x    frame=27988 fps=359 q=-0.0 size=N/A time=00:19:27.33 bitrate=N/A speed=  15x    frame=28171 fps=359 q=-0.0 size=N/A time=00:19:34.96 bitrate=N/A speed=  15x    frame=28361 fps=359 q=-0.0 size=N/A time=00:19:42.89 bitrate=N/A speed=  15x    frame=28544 fps=359 q=-0.0 size=N/A time=00:19:50.52 bitrate=N/A speed=  15x    frame=28720 fps=359 q=-0.0 size=N/A time=00:19:57.86 bitrate=N/A speed=  15x    frame=28881 fps=359 q=-0.0 size=N/A time=00:20:04.57 bitrate=N/A speed=  15x    frame=29049 fps=358 q=-0.0 size=N/A time=00:20:11.58 bitrate=N/A speed=  15x    frame=29216 fps=358 q=-0.0 size=N/A time=00:20:18.55 bitrate=N/A speed=14.9x    frame=29398 fps=358 q=-0.0 size=N/A time=00:20:26.14 bitrate=N/A speed=14.9x    frame=29560 fps=358 q=-0.0 size=N/A time=00:20:32.89 bitrate=N/A speed=14.9x    frame=29726 fps=358 q=-0.0 size=N/A time=00:20:39.82 bitrate=N/A speed=14.9x    frame=29900 fps=358 q=-0.0 size=N/A time=00:20:47.07 bitrate=N/A speed=14.9x    frame=30059 fps=357 q=-0.0 size=N/A time=00:20:53.71 bitrate=N/A speed=14.9x    frame=30234 fps=357 q=-0.0 size=N/A time=00:21:01.00 bitrate=N/A speed=14.9x    frame=30419 fps=357 q=-0.0 size=N/A time=00:21:08.72 bitrate=N/A speed=14.9x    frame=30605 fps=357 q=-0.0 size=N/A time=00:21:16.48 bitrate=N/A speed=14.9x    frame=30786 fps=357 q=-0.0 size=N/A time=00:21:24.03 bitrate=N/A speed=14.9x    frame=30975 fps=357 q=-0.0 size=N/A time=00:21:31.91 bitrate=N/A speed=14.9x    frame=31166 fps=357 q=-0.0 size=N/A time=00:21:39.88 bitrate=N/A speed=14.9x    frame=31351 fps=357 q=-0.0 size=N/A time=00:21:47.59 bitrate=N/A speed=14.9x    frame=31529 fps=357 q=-0.0 size=N/A time=00:21:55.02 bitrate=N/A speed=14.9x    frame=31712 fps=357 q=-0.0 size=N/A time=00:22:02.65 bitrate=N/A speed=14.9x    frame=31889 fps=357 q=-0.0 size=N/A time=00:22:10.03 bitrate=N/A speed=14.9x    frame=32058 fps=357 q=-0.0 size=N/A time=00:22:17.08 bitrate=N/A speed=14.9x    frame=32239 fps=357 q=-0.0 size=N/A time=00:22:24.63 bitrate=N/A speed=14.9x    frame=32413 fps=357 q=-0.0 size=N/A time=00:22:31.89 bitrate=N/A speed=14.9x    frame=32585 fps=357 q=-0.0 size=N/A time=00:22:39.06 bitrate=N/A speed=14.9x    frame=32730 fps=356 q=-0.0 size=N/A time=00:22:45.11 bitrate=N/A speed=14.9x    frame=32879 fps=356 q=-0.0 size=N/A time=00:22:51.37 bitrate=N/A speed=14.8x    frame=33063 fps=356 q=-0.0 size=N/A time=00:22:59.00 bitrate=N/A speed=14.8x    frame=33250 fps=356 q=-0.0 size=N/A time=00:23:06.80 bitrate=N/A speed=14.8x    frame=33417 fps=356 q=-0.0 size=N/A time=00:23:13.76 bitrate=N/A speed=14.8x    frame=33575 fps=355 q=-0.0 size=N/A time=00:23:20.35 bitrate=N/A speed=14.8x    frame=33724 fps=355 q=-0.0 size=N/A time=00:23:26.57 bitrate=N/A speed=14.8x    frame=33846 fps=354 q=-0.0 size=N/A time=00:23:31.66 bitrate=N/A speed=14.8x    frame=33987 fps=354 q=-0.0 size=N/A time=00:23:37.54 bitrate=N/A speed=14.8x    frame=34144 fps=354 q=-0.0 size=N/A time=00:23:44.08 bitrate=N/A speed=14.8x    frame=34296 fps=353 q=-0.0 size=N/A time=00:23:50.42 bitrate=N/A speed=14.7x    frame=34422 fps=353 q=-0.0 size=N/A time=00:23:55.68 bitrate=N/A speed=14.7x    frame=34597 fps=353 q=-0.0 size=N/A time=00:24:02.98 bitrate=N/A speed=14.7x    [Parsed_psnr_16 @ 000001a73cd61b80] PSNR y:49.002516 u:50.358289 v:50.403297 average:49.415160 min:37.969712 max:inf
[out#0/null @ 000001a72fc9fe80] video:14903KiB audio:271276KiB subtitle:0KiB other streams:0KiB global headers:0KiB muxing overhead: unknown
frame=34683 fps=353 q=-0.0 Lsize=N/A time=00:24:06.57 bitrate=N/A speed=14.7x    
